<svg width="41" height="36" viewBox="0 0 41 36" fill="none" xmlns="http://www.w3.org/2000/svg">
<path d="M11.3889 2.25C8.87621 2.25 6.83333 4.26797 6.83333 6.75V22.5C6.83333 24.982 8.87621 27 11.3889 27H36.4444C38.9571 27 41 24.982 41 22.5V6.75C41 4.26797 38.9571 2.25 36.4444 2.25H11.3889ZM28.1875 9.75234L35.0208 19.8773C35.3696 20.3977 35.4052 21.0586 35.1063 21.607C34.8073 22.1555 34.2307 22.5 33.5972 22.5H23.3472H19.9306H14.2361C13.5812 22.5 12.9833 22.1273 12.6986 21.5437C12.4139 20.9602 12.4922 20.2641 12.905 19.7578L17.4606 14.1328C17.788 13.732 18.272 13.5 18.7917 13.5C19.3113 13.5 19.8024 13.732 20.1227 14.1328L21.3542 15.6516L25.3403 9.74531C25.6606 9.28125 26.1944 9 26.7639 9C27.3333 9 27.8672 9.28125 28.1875 9.75234ZM13.6667 9C13.6667 8.40326 13.9066 7.83097 14.3338 7.40901C14.761 6.98705 15.3403 6.75 15.9444 6.75C16.5485 6.75 17.1279 6.98705 17.5551 7.40901C17.9822 7.83097 18.2222 8.40326 18.2222 9C18.2222 9.59674 17.9822 10.169 17.5551 10.591C17.1279 11.0129 16.5485 11.25 15.9444 11.25C15.3403 11.25 14.761 11.0129 14.3338 10.591C13.9066 10.169 13.6667 9.59674 13.6667 9ZM3.41667 8.4375C3.41667 7.50234 2.65503 6.75 1.70833 6.75C0.761632 6.75 0 7.50234 0 8.4375V24.1875C0 29.468 4.3349 33.75 9.68056 33.75H32.4583C33.405 33.75 34.1667 32.9977 34.1667 32.0625C34.1667 31.1273 33.405 30.375 32.4583 30.375H9.68056C6.22118 30.375 3.41667 27.6047 3.41667 24.1875V8.4375Z" fill="white"/>
</svg>
