<svg width="45" height="36" viewBox="0 0 45 36" fill="none" xmlns="http://www.w3.org/2000/svg">
<path d="M14.9836 4.55625L14.2523 6.75H9C6.51797 6.75 4.5 8.76797 4.5 11.25V29.25C4.5 31.732 6.51797 33.75 9 33.75H36C38.482 33.75 40.5 31.732 40.5 29.25V11.25C40.5 8.76797 38.482 6.75 36 6.75H30.7477L30.0164 4.55625C29.5594 3.17813 28.2727 2.25 26.8172 2.25H18.1828C16.7273 2.25 15.4406 3.17813 14.9836 4.55625ZM31.5 18C31.5 18.6187 30.9937 19.125 30.375 19.125H24.982C24.5461 19.125 24.1875 18.7664 24.1875 18.3305C24.1875 18.1195 24.2719 17.9156 24.4195 17.768L26.0859 16.1016C25.1297 15.1594 23.843 14.625 22.5 14.625C21.15 14.625 19.8492 15.1594 18.893 16.1227L17.5078 17.5078C16.8469 18.1687 15.7781 18.1687 15.1242 17.5078C14.4703 16.8469 14.4633 15.7781 15.1242 15.1242L16.5094 13.7391C18.0984 12.143 20.25 11.25 22.5 11.25C24.7359 11.25 26.8875 12.1359 28.4766 13.7109L30.143 12.0445C30.2906 11.8969 30.4945 11.8125 30.7055 11.8125C31.1414 11.8125 31.5 12.1711 31.5 12.607V18ZM13.5 22.5C13.5 21.8813 14.0063 21.375 14.625 21.375H20.018C20.4539 21.375 20.8125 21.7336 20.8125 22.1695C20.8125 22.3805 20.7281 22.5844 20.5805 22.732L18.9141 24.3984C19.8703 25.3406 21.157 25.875 22.5 25.875C23.85 25.875 25.1508 25.3406 26.107 24.3773L27.4922 22.9922C28.1531 22.3312 29.2219 22.3312 29.8758 22.9922C30.5297 23.6531 30.5367 24.7219 29.8758 25.3758L28.4906 26.7609C26.9016 28.357 24.75 29.25 22.5 29.25C20.2641 29.25 18.1125 28.3641 16.5234 26.7891L14.857 28.4555C14.7094 28.6031 14.5055 28.6875 14.2945 28.6875C13.8586 28.6875 13.5 28.3289 13.5 27.893V22.5Z" fill="white"/>
</svg>
