<?xml version="1.0" encoding="UTF-8" standalone="no"?>
<!-- Created with Inkscape (http://www.inkscape.org/) -->

<svg
   width="90mm"
   height="90mm"
   viewBox="0 0 90 90"
   version="1.1"
   id="svg1"
   xml:space="preserve"
   inkscape:version="1.3.2 (091e20e, 2023-11-25, custom)"
   sodipodi:docname="chair2-blue.svg"
   xmlns:inkscape="http://www.inkscape.org/namespaces/inkscape"
   xmlns:sodipodi="http://sodipodi.sourceforge.net/DTD/sodipodi-0.dtd"
   xmlns="http://www.w3.org/2000/svg"
   xmlns:svg="http://www.w3.org/2000/svg"><sodipodi:namedview
     id="namedview1"
     pagecolor="#505050"
     bordercolor="#eeeeee"
     borderopacity="1"
     inkscape:showpageshadow="0"
     inkscape:pageopacity="0"
     inkscape:pagecheckerboard="0"
     inkscape:deskcolor="#505050"
     inkscape:document-units="mm"
     inkscape:zoom="1.4142136"
     inkscape:cx="186.67619"
     inkscape:cy="211.77848"
     inkscape:window-width="1920"
     inkscape:window-height="1001"
     inkscape:window-x="-9"
     inkscape:window-y="-9"
     inkscape:window-maximized="1"
     inkscape:current-layer="layer1"
     showguides="true" /><defs
     id="defs1"><filter
       style="color-interpolation-filters:sRGB"
       inkscape:label="Lightness-Contrast"
       id="filter32"
       x="-0.011209577"
       y="-0.012910349"
       width="1.0224191"
       height="1.0258207"><feComposite
         in2="SourceGraphic"
         operator="arithmetic"
         k1="0"
         k2="0.4"
         result="composite1"
         id="feComposite31"
         k3="0"
         k4="0" /><feColorMatrix
         in="composite1"
         values="1"
         type="saturate"
         result="colormatrix1"
         id="feColorMatrix31" /><feFlood
         flood-opacity="1"
         flood-color="rgb(0,163,255)"
         result="flood1"
         id="feFlood31" /><feBlend
         in="flood1"
         in2="colormatrix1"
         mode="multiply"
         result="blend1"
         id="feBlend31" /><feBlend
         in2="blend1"
         mode="lighten"
         result="blend2"
         id="feBlend32" /><feColorMatrix
         in="blend2"
         values="1"
         type="saturate"
         result="colormatrix2"
         id="feColorMatrix32" /><feComposite
         in="colormatrix2"
         in2="SourceGraphic"
         operator="in"
         result="fbSourceGraphic"
         id="feComposite32" /><feColorMatrix
         result="fbSourceGraphicAlpha"
         in="fbSourceGraphic"
         values="0 0 0 -1 0 0 0 0 -1 0 0 0 0 -1 0 0 0 0 1 0"
         id="feColorMatrix49" /><feColorMatrix
         id="feColorMatrix50"
         values="3.94498 0 0 -0.328065 -1.47249 0 3.94498 0 -0.328065 -1.47249 0 0 3.94498 -0.328065 -1.47249 0 0 0 1 0"
         in="fbSourceGraphic" /></filter><filter
       style="color-interpolation-filters:sRGB"
       inkscape:label="Lightness-Contrast"
       id="filter127"
       x="-0.011252683"
       y="-0.01285364"
       width="1.0225054"
       height="1.0257073"><feComposite
         in2="SourceGraphic"
         operator="arithmetic"
         k1="0"
         k2="0.4"
         result="composite1"
         id="feComposite126"
         k3="0"
         k4="0" /><feColorMatrix
         in="composite1"
         values="1"
         type="saturate"
         result="colormatrix1"
         id="feColorMatrix126" /><feFlood
         flood-opacity="1"
         flood-color="rgb(0,163,255)"
         result="flood1"
         id="feFlood126" /><feBlend
         in="flood1"
         in2="colormatrix1"
         mode="multiply"
         result="blend1"
         id="feBlend126" /><feBlend
         in2="blend1"
         mode="lighten"
         result="blend2"
         id="feBlend127" /><feColorMatrix
         in="blend2"
         values="1"
         type="saturate"
         result="colormatrix2"
         id="feColorMatrix127" /><feComposite
         in="colormatrix2"
         in2="SourceGraphic"
         operator="in"
         result="fbSourceGraphic"
         id="feComposite127" /><feColorMatrix
         result="fbSourceGraphicAlpha"
         in="fbSourceGraphic"
         values="0 0 0 -1 0 0 0 0 -1 0 0 0 0 -1 0 0 0 0 1 0"
         id="feColorMatrix128" /><feColorMatrix
         id="feColorMatrix129"
         values="3.94498 0 0 -0.3281 -1.47249 0 3.94498 0 -0.3281 -1.47249 0 0 3.94498 -0.3281 -1.47249 0 0 0 1 0"
         in="fbSourceGraphic" /></filter><filter
       style="color-interpolation-filters:sRGB"
       inkscape:label="Lightness-Contrast"
       id="filter176"
       x="-0.010833661"
       y="-0.01344777"
       width="1.0154741"
       height="1.0268956"><feComposite
         in2="SourceGraphic"
         operator="arithmetic"
         k1="0"
         k2="0.4"
         result="composite1"
         id="feComposite175"
         k3="0"
         k4="0" /><feColorMatrix
         in="composite1"
         values="1"
         type="saturate"
         result="colormatrix1"
         id="feColorMatrix175" /><feFlood
         flood-opacity="1"
         flood-color="rgb(0,163,255)"
         result="flood1"
         id="feFlood175" /><feBlend
         in="flood1"
         in2="colormatrix1"
         mode="multiply"
         result="blend1"
         id="feBlend175" /><feBlend
         in2="blend1"
         mode="lighten"
         result="blend2"
         id="feBlend176" /><feColorMatrix
         in="blend2"
         values="1"
         type="saturate"
         result="colormatrix2"
         id="feColorMatrix176" /><feComposite
         in="colormatrix2"
         in2="SourceGraphic"
         operator="in"
         result="fbSourceGraphic"
         id="feComposite176" /><feColorMatrix
         result="fbSourceGraphicAlpha"
         in="fbSourceGraphic"
         values="0 0 0 -1 0 0 0 0 -1 0 0 0 0 -1 0 0 0 0 1 0"
         id="feColorMatrix177" /><feColorMatrix
         id="feColorMatrix178"
         values="3.94498 0 0 -0.3281 -1.47249 0 3.94498 0 -0.3281 -1.47249 0 0 3.94498 -0.3281 -1.47249 0 0 0 1 0"
         in="fbSourceGraphic" /></filter><filter
       style="color-interpolation-filters:sRGB;"
       inkscape:label="Lightness-Contrast"
       id="filter13"
       x="0"
       y="0"
       width="1"
       height="1"><feComposite
         in2="SourceGraphic"
         operator="arithmetic"
         k1="0"
         k2="0.4"
         result="composite1"
         id="feComposite12" /><feColorMatrix
         in="composite1"
         values="1"
         type="saturate"
         result="colormatrix1"
         id="feColorMatrix12" /><feFlood
         flood-opacity="1"
         flood-color="rgb(0,163,255)"
         result="flood1"
         id="feFlood12" /><feBlend
         in="flood1"
         in2="colormatrix1"
         mode="multiply"
         result="blend1"
         id="feBlend12" /><feBlend
         in2="blend1"
         mode="lighten"
         result="blend2"
         id="feBlend13" /><feColorMatrix
         in="blend2"
         values="1"
         type="saturate"
         result="colormatrix2"
         id="feColorMatrix13" /><feComposite
         in="colormatrix2"
         in2="SourceGraphic"
         operator="in"
         k2="1"
         result="fbSourceGraphic"
         id="feComposite13" /><feColorMatrix
         result="fbSourceGraphicAlpha"
         in="fbSourceGraphic"
         values="0 0 0 -1 0 0 0 0 -1 0 0 0 0 -1 0 0 0 0 1 0"
         id="feColorMatrix14" /><feColorMatrix
         id="feColorMatrix15"
         values="3.945 0 0 -0.328101 -1.4725 0 3.945 0 -0.328101 -1.4725 0 0 3.945 -0.328101 -1.4725 0 0 0 1 0"
         in="fbSourceGraphic" /></filter></defs><g
     inkscape:label="Warstwa 1"
     inkscape:groupmode="layer"
     id="layer1"><g
       id="g80"
       inkscape:label="krzesło"
       transform="matrix(0.89997478,0,0,0.89997478,-24.344291,-98.595932)"
       style="display:none;opacity:1"><path
         id="path81"
         style="opacity:1;fill:#f4f4f4;fill-opacity:1;stroke-width:1.92372;stroke-linecap:square;stroke-miterlimit:32"
         inkscape:label="lewo"
         d="m 77.911523,126.83099 -38.249344,5.98517 v 3.58117 36.69905 3.56103 l 38.249344,6.43023 7.092074,-8.3712 -2.653585,-15.97835 2.653585,-23.96081 z"
         sodipodi:nodetypes="cccccccccc" /><path
         id="path51"
         style="opacity:1;fill:#ececec;fill-opacity:1;stroke-width:1.92372;stroke-linecap:square;stroke-miterlimit:32"
         inkscape:label="prawo"
         d="m 77.901188,126.82324 v 15.27762 37.2268 3.76773 l 36.539372,-1.74163 v -14.75104 -27.94506 -1.54255 z"
         sodipodi:nodetypes="ccccccccc" /><path
         id="path83"
         style="opacity:1;fill:#dcdcdc;fill-opacity:1;stroke-width:1.92372;stroke-linecap:square;stroke-miterlimit:32"
         inkscape:label="spod2"
         d="m 77.901188,173.00608 -9.1098,1.82516 -29.129209,1.82475 v 4.52396 l 38.239009,11.09751 v 0.0103 l 31.380002,-7.60212 -5.68855,-4.18202 z"
         sodipodi:nodetypes="ccccccccc" /><path
         id="path80"
         style="opacity:1;fill:#d6d6d6;fill-opacity:1;stroke-width:1.92372;stroke-linecap:square;stroke-miterlimit:32"
         inkscape:label="spod3"
         d="m 81.642961,175.01728 -12.851573,-0.18604 -2.936795,1.82475 11.973674,-0.94838 0.07292,16.56985 v 0.0103 l 36.539373,-6.4115 v -4.84347 z"
         sodipodi:nodetypes="ccccccccc" /><path
         id="path52"
         style="opacity:1;fill:#fafafa;fill-opacity:1;stroke-width:1.92372;stroke-linecap:square;stroke-miterlimit:32"
         inkscape:label="spod"
         d="m 77.901188,170.5999 v 0.009 l -38.239009,5.9831 v 0.0651 l 38.239009,11.09751 v 0.0103 l 36.539372,-6.4115 v -0.46251 z"
         sodipodi:nodetypes="ccccccccc" /><path
         style="opacity:1;fill:#cccccc;fill-opacity:1;stroke-width:1.554;stroke-linecap:square;stroke-miterlimit:32"
         d="m 74.139995,176.40992 8.302413,-1.79256 v -15.66137 l -8.389411,2.24793 z"
         id="path86" /><path
         id="path87"
         style="display:inline;opacity:1;fill:#ffffff;fill-opacity:1;stroke-width:1.53751;stroke-linecap:square;stroke-miterlimit:32"
         d="m 71.410285,132.91704 c -0.53351,-0.0233 -0.953407,-0.0664 -1.488454,-0.0352 -6.636443,0.39257 -10.345624,6.25699 -10.233851,11.42248 L 59.464171,143.138 v 17.65175 l 23.125074,-6.21998 -0.03153,-13.83824 c -0.01868,-2.06633 -2.413052,-7.39267 -8.546306,-7.66217 z"
         sodipodi:nodetypes="ccccccccc" /><path
         id="path88"
         style="display:inline;opacity:1;fill:#cccccc;fill-opacity:1;stroke-width:1.53751;stroke-linecap:square;stroke-miterlimit:32"
         d="m 59.464071,161.925 v 14.24823 l 2.212784,2.23448 3.813204,-0.79064 V 162.1224 l 3.54552,0.77515 V 161.925 Z" /><path
         id="path89"
         style="display:inline;opacity:1;fill:#cccccc;fill-opacity:1;stroke-width:1.53751;stroke-linecap:square;stroke-miterlimit:32"
         d="m 88.305721,161.83147 v 0.1266 l 0.845943,-0.1266 z m 2.236039,0 v 15.68173 l 3.342432,1.03559 1.811776,-1.48105 v -15.23627 z" /><path
         id="path90"
         style="display:inline;opacity:1;fill:#f4f4f4;fill-opacity:1;stroke-width:1.53751;stroke-linecap:square;stroke-miterlimit:32"
         d="m 65.490059,162.1224 5.386752,1.17771 h 8.448063 l 11.216886,-1.67638 6.591329,-4.14084 -14.536063,-2.91145 -22.137151,3.27216 z"
         sodipodi:nodetypes="cccccccc" /><path
         id="path91"
         style="display:inline;opacity:1;fill:#dcdcdc;fill-opacity:1;stroke-width:1.53751;stroke-linecap:square;stroke-miterlimit:32"
         d="m 70.807808,132.65718 c -0.267565,0.002 -0.535783,0.0108 -0.803304,0.0264 -6.636418,0.39256 -11.831738,4.81813 -11.719969,9.98359 l -0.03617,0.003 v 34.62533 l 3.422798,1.1105 v -15.05836 l 9.205553,2.24282 v 15.5447 l 3.816125,1.14094 v -15.77898 l 19.916655,-5.50714 1.028964,-1.07375 -21.083427,0.51218 -12.88387,-2.7774 v -13.47587 l 0.03675,-0.003 c -0.111773,-5.72033 5.082979,-10.62145 11.719395,-11.05619 0.320785,-0.0208 0.641628,-0.0273 0.962357,-0.0264 -0.886376,-0.22395 -1.814092,-0.37611 -2.780844,-0.41859 v 5.8e-4 c -0.266755,-0.0117 -0.533439,-0.0164 -0.801008,-0.0144 z" /><path
         id="path92"
         style="display:inline;opacity:1;fill:#d6d6d6;fill-opacity:1;stroke-width:1.53751;stroke-linecap:square;stroke-miterlimit:32"
         d="m 97.135392,157.48438 -22.580363,2.94392 0.01091,0.72349 h -0.148144 v 21.04209 l 0.341074,0.1022 4.566028,-0.97556 v -15.51198 l 14.539859,-2.17736 v 14.91137 l 0.01952,0.006 3.234461,-0.78206 v -14.62311 l 0.01665,-0.002 z" /></g><g
       id="g12"
       inkscape:label="krzesło"
       transform="matrix(0.89997478,0,0,0.89997478,-24.344291,-98.595932)"
       style="display:inline;opacity:1;filter:url(#filter13)"><path
         id="path1"
         style="opacity:1;fill:#f4f4f4;fill-opacity:1;stroke-width:1.92372;stroke-linecap:square;stroke-miterlimit:32"
         inkscape:label="lewo"
         d="m 77.911523,126.83099 -38.249344,5.98517 v 3.58117 36.69905 3.56103 l 38.249344,6.43023 7.092074,-8.3712 -2.653585,-15.97835 2.653585,-23.96081 z"
         sodipodi:nodetypes="cccccccccc" /><path
         id="path2"
         style="opacity:1;fill:#ececec;fill-opacity:1;stroke-width:1.92372;stroke-linecap:square;stroke-miterlimit:32"
         inkscape:label="prawo"
         d="m 77.901188,126.82324 v 15.27762 37.2268 3.76773 l 36.539372,-1.74163 v -14.75104 -27.94506 -1.54255 z"
         sodipodi:nodetypes="ccccccccc" /><path
         id="path3"
         style="opacity:1;fill:#dcdcdc;fill-opacity:1;stroke-width:1.92372;stroke-linecap:square;stroke-miterlimit:32"
         inkscape:label="spod2"
         d="m 77.901188,173.00608 -9.1098,1.82516 -29.129209,1.82475 v 4.52396 l 38.239009,11.09751 v 0.0103 l 31.380002,-7.60212 -5.68855,-4.18202 z"
         sodipodi:nodetypes="ccccccccc" /><path
         id="path4"
         style="opacity:1;fill:#d6d6d6;fill-opacity:1;stroke-width:1.92372;stroke-linecap:square;stroke-miterlimit:32"
         inkscape:label="spod3"
         d="m 81.642961,175.01728 -12.851573,-0.18604 -2.936795,1.82475 11.973674,-0.94838 0.07292,16.56985 v 0.0103 l 36.539373,-6.4115 v -4.84347 z"
         sodipodi:nodetypes="ccccccccc" /><path
         id="path5"
         style="opacity:1;fill:#fafafa;fill-opacity:1;stroke-width:1.92372;stroke-linecap:square;stroke-miterlimit:32"
         inkscape:label="spod"
         d="m 77.901188,170.5999 v 0.009 l -38.239009,5.9831 v 0.0651 l 38.239009,11.09751 v 0.0103 l 36.539372,-6.4115 v -0.46251 z"
         sodipodi:nodetypes="ccccccccc" /><path
         style="opacity:1;fill:#cccccc;fill-opacity:1;stroke-width:1.554;stroke-linecap:square;stroke-miterlimit:32"
         d="m 74.139995,176.40992 8.302413,-1.79256 v -15.66137 l -8.389411,2.24793 z"
         id="path6" /><path
         id="path7"
         style="display:inline;opacity:1;fill:#ffffff;fill-opacity:1;stroke-width:1.53751;stroke-linecap:square;stroke-miterlimit:32"
         d="m 71.410285,132.91704 c -0.53351,-0.0233 -0.953407,-0.0664 -1.488454,-0.0352 -6.636443,0.39257 -10.345624,6.25699 -10.233851,11.42248 L 59.464171,143.138 v 17.65175 l 23.125074,-6.21998 -0.03153,-13.83824 c -0.01868,-2.06633 -2.413052,-7.39267 -8.546306,-7.66217 z"
         sodipodi:nodetypes="ccccccccc" /><path
         id="path8"
         style="display:inline;opacity:1;fill:#cccccc;fill-opacity:1;stroke-width:1.53751;stroke-linecap:square;stroke-miterlimit:32"
         d="m 59.464071,161.925 v 14.24823 l 2.212784,2.23448 3.813204,-0.79064 V 162.1224 l 3.54552,0.77515 V 161.925 Z" /><path
         id="path9"
         style="display:inline;opacity:1;fill:#cccccc;fill-opacity:1;stroke-width:1.53751;stroke-linecap:square;stroke-miterlimit:32"
         d="m 88.305721,161.83147 v 0.1266 l 0.845943,-0.1266 z m 2.236039,0 v 15.68173 l 3.342432,1.03559 1.811776,-1.48105 v -15.23627 z" /><path
         id="path10"
         style="display:inline;opacity:1;fill:#f4f4f4;fill-opacity:1;stroke-width:1.53751;stroke-linecap:square;stroke-miterlimit:32"
         d="m 65.490059,162.1224 5.386752,1.17771 h 8.448063 l 11.216886,-1.67638 6.591329,-4.14084 -14.536063,-2.91145 -22.137151,3.27216 z"
         sodipodi:nodetypes="cccccccc" /><path
         id="path11"
         style="display:inline;opacity:1;fill:#dcdcdc;fill-opacity:1;stroke-width:1.53751;stroke-linecap:square;stroke-miterlimit:32"
         d="m 70.807808,132.65718 c -0.267565,0.002 -0.535783,0.0108 -0.803304,0.0264 -6.636418,0.39256 -11.831738,4.81813 -11.719969,9.98359 l -0.03617,0.003 v 34.62533 l 3.422798,1.1105 v -15.05836 l 9.205553,2.24282 v 15.5447 l 3.816125,1.14094 v -15.77898 l 19.916655,-5.50714 1.028964,-1.07375 -21.083427,0.51218 -12.88387,-2.7774 v -13.47587 l 0.03675,-0.003 c -0.111773,-5.72033 5.082979,-10.62145 11.719395,-11.05619 0.320785,-0.0208 0.641628,-0.0273 0.962357,-0.0264 -0.886376,-0.22395 -1.814092,-0.37611 -2.780844,-0.41859 v 5.8e-4 c -0.266755,-0.0117 -0.533439,-0.0164 -0.801008,-0.0144 z" /><path
         id="path12"
         style="display:inline;opacity:1;fill:#d6d6d6;fill-opacity:1;stroke-width:1.53751;stroke-linecap:square;stroke-miterlimit:32"
         d="m 97.135392,157.48438 -22.580363,2.94392 0.01091,0.72349 h -0.148144 v 21.04209 l 0.341074,0.1022 4.566028,-0.97556 v -15.51198 l 14.539859,-2.17736 v 14.91137 l 0.01952,0.006 3.234461,-0.78206 v -14.62311 l 0.01665,-0.002 z" /></g></g></svg>
