<svg width="36" height="36" viewBox="0 0 36 36" fill="none" xmlns="http://www.w3.org/2000/svg">
<path d="M18 3C18.2034 3 18.3973 3.04049 18.5742 3.11382L19.0507 3.4296L19.0606 3.43934L26.5606 10.9393C27.1464 11.5251 27.1464 12.4749 26.5606 13.0607C25.9749 13.6464 25.0251 13.6464 24.4393 13.0607L19.5 8.12131V24C19.5 24.8284 18.8284 25.5 18 25.5C17.1715 25.5 16.5 24.8284 16.5 24V8.12131L11.5607 13.0607C10.9749 13.6464 10.0251 13.6464 9.43933 13.0607C8.85356 12.4749 8.85356 11.5251 9.43933 10.9393L16.9393 3.43934C17.0832 3.29553 17.2489 3.18702 17.4258 3.11382C17.6026 3.04049 17.7966 3 18 3Z" fill="#9D9D9D"/>
<path d="M6 25.5C6 24.6716 5.32842 24 4.5 24C3.67158 24 3 24.6716 3 25.5V30C3 31.6569 4.34314 33 6 33H30C31.6569 33 33 31.6569 33 30V25.5C33 24.6716 32.3284 24 31.5 24C30.6716 24 30 24.6716 30 25.5V30H6V25.5Z" fill="#9D9D9D"/>
</svg>
