<svg width="33" height="32" viewBox="0 0 33 32" fill="none" xmlns="http://www.w3.org/2000/svg">
<path d="M27.9449 0.559395C28.3417 1.92888 28.1403 3.50623 28.1708 4.91852C29.8131 5.21809 32.6215 4.09316 33 6.45919C32.8962 8.9964 29.7642 7.83479 28.1647 8.13436C28.0975 9.46105 28.4394 11.1668 27.8777 12.3957C26.7788 13.49 25.9424 12.952 24.9472 12.1083C24.9839 10.7755 24.99 9.44271 24.99 8.11602C23.6529 8.11602 22.2671 8.18939 20.9422 7.99986C19.9898 7.20507 20.0509 5.68274 21.1681 5.05913C22.4136 4.86961 23.7201 4.96131 24.9778 4.9552C24.9839 3.62851 24.9656 2.29571 24.9961 0.969017C25.8447 -0.162031 26.8093 -0.308761 27.9449 0.559395Z" fill="#9D9D9D"/>
<path d="M19.1839 1.20137C19.0191 2.15512 18.8481 3.10276 18.6894 4.05651C16.3511 3.88532 14.2082 3.64077 11.9432 4.4539C7.77944 5.7378 4.35443 9.2899 3.29213 13.5267C2.0894 18.1426 3.93928 23.321 7.63902 26.2862C9.71478 27.9981 12.5659 28.8295 15.1972 29.1536C19.941 28.9335 24.4222 26.4696 26.5346 22.0921C27.6824 20.0624 27.6518 17.9592 27.7312 15.7033C28.7202 15.7705 29.7154 15.8439 30.7044 15.9111C30.5701 18.1243 30.619 20.1541 29.7093 22.2205C27.9266 26.7203 24.0498 30.2296 19.3427 31.3973C14.5745 32.9441 8.92722 31.3973 5.23968 28.0898C0.593633 24.0363 -1.15856 17.4029 0.776788 11.552C2.32751 7.02169 5.94178 3.38399 10.4535 1.80052C13.2008 0.712271 16.284 1.06687 19.1839 1.20137Z" fill="#9D9D9D"/>
<path d="M19.7394 12.2247C21.2413 11.9313 22.6821 13.2518 22.2547 14.7925C21.8335 16.7122 18.8603 16.8712 18.2803 14.9759C17.8712 13.7899 18.6954 12.7016 19.7394 12.2247Z" fill="#9D9D9D"/>
<path d="M9.83072 12.6218C11.1128 11.4785 13.274 12.7196 13.1458 14.3398C13.0909 15.642 11.6379 16.6202 10.4046 16.2473C8.77452 15.8071 8.56694 13.5817 9.83072 12.6218Z" fill="#9D9D9D"/>
<path d="M11.3265 20.2334C12.633 21.016 13.5732 21.9636 15.2155 21.8535C17.0348 22.0247 18.1582 20.9976 19.5929 20.0928C20.0264 20.6491 20.4598 21.2055 20.8811 21.7679C18.1032 24.8248 13.3534 25.2589 10.4168 22.1959C9.49493 21.6457 10.6854 20.5024 11.3265 20.2334Z" fill="#9D9D9D"/>
</svg>
