<svg width="36" height="36" viewBox="0 0 36 36" fill="none" xmlns="http://www.w3.org/2000/svg">
<path fill-rule="evenodd" clip-rule="evenodd" d="M4.5 3C3.67158 3 3 3.67158 3 4.5V15C3 15.8285 3.67158 16.5 4.5 16.5H15C15.8285 16.5 16.5 15.8285 16.5 15V4.5C16.5 3.67158 15.8285 3 15 3H4.5ZM6 13.5V6H13.5V13.5H6Z" fill="#9D9D9D"/>
<path fill-rule="evenodd" clip-rule="evenodd" d="M21 3C20.1716 3 19.5 3.67158 19.5 4.5V15C19.5 15.8285 20.1716 16.5 21 16.5H31.5C32.3285 16.5 33 15.8285 33 15V4.5C33 3.67158 32.3285 3 31.5 3H21ZM22.5 13.5V6H30V13.5H22.5Z" fill="#9D9D9D"/>
<path fill-rule="evenodd" clip-rule="evenodd" d="M19.5 21C19.5 20.1716 20.1716 19.5 21 19.5H31.5C32.3285 19.5 33 20.1716 33 21V31.5C33 32.3285 32.3285 33 31.5 33H21C20.1716 33 19.5 32.3285 19.5 31.5V21ZM22.5 22.5V30H30V22.5H22.5Z" fill="#9D9D9D"/>
<path fill-rule="evenodd" clip-rule="evenodd" d="M4.5 19.5C3.67158 19.5 3 20.1716 3 21V31.5C3 32.3285 3.67158 33 4.5 33H15C15.8285 33 16.5 32.3285 16.5 31.5V21C16.5 20.1716 15.8285 19.5 15 19.5H4.5ZM6 30V22.5H13.5V30H6Z" fill="#9D9D9D"/>
</svg>
