<!DOCTYPE svg PUBLIC "-//W3C//DTD SVG 1.1//EN" "http://www.w3.org/Graphics/SVG/1.1/DTD/svg11.dtd">
<!-- Uploaded to: SVG Repo, www.svgrepo.com, Transformed by: SVG Repo Mixer Tools -->
<svg fill="#ffffff" height="800px" width="800px" version="1.1" id="Layer_1" xmlns="http://www.w3.org/2000/svg" xmlns:xlink="http://www.w3.org/1999/xlink" viewBox="0 0 512 512" xml:space="preserve" stroke="#ffffff">
<g id="SVGRepo_bgCarrier" stroke-width="0"/>
<g id="SVGRepo_tracerCarrier" stroke-linecap="round" stroke-linejoin="round"/>
<g id="SVGRepo_iconCarrier"> <g> <g> <path d="M474.433,218.339v-31.351c0-0.003,0-0.005,0-0.009C474.409,75.5,0,75.568,0,186.988c0,0.001,0,0.004,0,0.005v138.02 c0,111.502,474.433,111.407,474.433,0v-28.928c20.834-0.71,37.567-17.869,37.567-38.872 C512,236.208,495.267,219.05,474.433,218.339z M170.135,340.775c-13.144,0-23.799-10.655-23.799-23.799 c0-13.144,10.655-23.799,23.799-23.799c13.144,0,23.799,10.655,23.799,23.799C193.936,330.12,183.281,340.775,170.135,340.775z M237.217,340.775c-13.144,0-23.799-10.655-23.799-23.799c0-13.144,10.655-23.799,23.799-23.799 c13.144,0,23.799,10.655,23.799,23.799C261.017,330.12,250.362,340.775,237.217,340.775z M304.298,340.775 c-13.144,0-23.799-10.655-23.799-23.799c0-13.144,10.655-23.799,23.799-23.799c13.144,0,23.799,10.655,23.799,23.799 C328.098,330.12,317.443,340.775,304.298,340.775z M113.928,218.744c73.054-15.49,173.475-15.504,246.584,0 C287.47,234.316,187.036,234.329,113.928,218.744z M424.311,196.164c-91.404-39.076-282.831-39.057-374.191,0 c-2.687-1.741-8.878-6.222-9.835-9.182c4.709-13.965,73.536-43.415,196.94-43.415c121.299,0,192.007,28.829,196.921,43.415 C433.167,189.961,427.036,194.396,424.311,196.164z"/> </g> </g> </g>
</svg>