<svg width="24" height="24" viewBox="0 0 24 24" fill="none" xmlns="http://www.w3.org/2000/svg">
<g clip-path="url(#clip0_1_2110)">
<path d="M23.2453 7.80938C23.3953 8.21719 23.2687 8.67188 22.9453 8.9625L20.9156 10.8094C20.9672 11.1984 20.9953 11.5969 20.9953 12C20.9953 12.4031 20.9672 12.8016 20.9156 13.1906L22.9453 15.0375C23.2687 15.3281 23.3953 15.7828 23.2453 16.1906C23.039 16.7484 22.7906 17.2828 22.5047 17.7984L22.2843 18.1781C21.975 18.6938 21.6281 19.1813 21.2484 19.6406C20.9718 19.9781 20.5125 20.0906 20.1 19.9594L17.489 19.1297C16.8609 19.6125 16.1672 20.0156 15.4265 20.3203L14.8406 22.9969C14.7468 23.4234 14.4187 23.7609 13.9875 23.8313C13.3406 23.9391 12.675 23.9953 11.9953 23.9953C11.3156 23.9953 10.65 23.9391 10.0031 23.8313C9.57184 23.7609 9.24371 23.4234 9.14996 22.9969L8.56403 20.3203C7.8234 20.0156 7.12965 19.6125 6.50153 19.1297L3.89528 19.9641C3.48278 20.0953 3.0234 19.9781 2.74684 19.6453C2.36715 19.1859 2.02028 18.6984 1.7109 18.1828L1.49059 17.8031C1.20465 17.2875 0.956213 16.7531 0.749963 16.1953C0.599963 15.7875 0.726526 15.3328 1.04996 15.0422L3.07965 13.1953C3.02809 12.8016 2.99996 12.4031 2.99996 12C2.99996 11.5969 3.02809 11.1984 3.07965 10.8094L1.04996 8.9625C0.726526 8.67188 0.599963 8.21719 0.749963 7.80938C0.956213 7.25156 1.20465 6.71719 1.49059 6.20156L1.7109 5.82188C2.02028 5.30625 2.36715 4.81875 2.74684 4.35938C3.0234 4.02188 3.48278 3.90938 3.89528 4.04063L6.50621 4.87031C7.13434 4.3875 7.82809 3.98438 8.56871 3.67969L9.15465 1.00313C9.2484 0.576563 9.57653 0.239063 10.0078 0.16875C10.6547 0.05625 11.3203 0 12 0C12.6797 0 13.3453 0.05625 13.9922 0.164063C14.4234 0.234375 14.7515 0.571875 14.8453 0.998438L15.4312 3.675C16.1718 3.97969 16.8656 4.38281 17.4937 4.86563L20.1047 4.03594C20.5172 3.90469 20.9765 4.02188 21.2531 4.35469C21.6328 4.81406 21.9797 5.30156 22.289 5.81719L22.5093 6.19688C22.7953 6.7125 23.0437 7.24688 23.25 7.80469L23.2453 7.80938ZM12 15.75C12.9945 15.75 13.9484 15.3549 14.6516 14.6517C15.3549 13.9484 15.75 12.9946 15.75 12C15.75 11.0054 15.3549 10.0516 14.6516 9.34835C13.9484 8.64509 12.9945 8.25 12 8.25C11.0054 8.25 10.0516 8.64509 9.34831 9.34835C8.64505 10.0516 8.24996 11.0054 8.24996 12C8.24996 12.9946 8.64505 13.9484 9.34831 14.6517C10.0516 15.3549 11.0054 15.75 12 15.75Z" fill="#9D9D9D"/>
</g>
<defs>
<clipPath id="clip0_1_2110">
<rect width="24" height="24" fill="white"/>
</clipPath>
</defs>
</svg>
