<svg width="18" height="20" viewBox="0 0 18 20" fill="none" xmlns="http://www.w3.org/2000/svg">
<g clip-path="url(#clip0_1_2099)">
<path d="M6.22266 0.210948C6.52734 -0.0742087 7 -0.0703025 7.30469 0.214854C8.38281 1.22657 9.39453 2.31642 10.3398 3.4961C10.7695 2.9336 11.2578 2.32032 11.7852 1.82032C12.0938 1.53126 12.5703 1.53126 12.8789 1.82423C14.2305 3.11329 15.375 4.81642 16.1797 6.4336C16.9727 8.02735 17.5 9.65626 17.5 10.8047C17.5 15.7891 13.6016 20 8.75 20C3.84375 20 0 15.7852 0 10.8008C0 9.30079 0.695313 7.46876 1.77344 5.65626C2.86328 3.81642 4.40234 1.89845 6.22266 0.210948ZM8.81641 16.25C9.80469 16.25 10.6797 15.9766 11.5039 15.4297C13.1484 14.2813 13.5898 11.9844 12.6016 10.1797C12.4258 9.82814 11.9766 9.8047 11.7227 10.1016L10.7383 11.2461C10.4805 11.543 10.0156 11.5352 9.77344 11.2266C9.12891 10.4063 7.97656 8.94142 7.32031 8.10939C7.07422 7.79689 6.60547 7.79298 6.35547 8.10548C5.03516 9.76563 4.37109 10.8125 4.37109 11.9883C4.375 14.6641 6.35156 16.25 8.81641 16.25Z" fill="#FFD700"/>
</g>
<defs>
<clipPath id="clip0_1_2099">
<rect width="17.5" height="20" fill="white"/>
</clipPath>
</defs>
</svg>
