<svg width="15" height="14" viewBox="0 0 15 14" fill="none" xmlns="http://www.w3.org/2000/svg">
<path d="M7.13281 8.93945C7.77228 8.93947 8.39392 9.10733 8.94141 9.42773L9.16309 9.55762C9.33127 9.65604 9.36055 9.88691 9.22266 10.0244L7.3291 11.9131C7.21276 12.0291 7.02357 12.0291 6.90723 11.9131L5.02539 10.0361C4.88828 9.89921 4.91729 9.6704 5.08398 9.57129L5.30273 9.44043C5.85528 9.1119 6.48487 8.93945 7.13281 8.93945ZM7.13281 5.46973C8.72352 5.46975 10.2509 5.99741 11.4951 6.97461L11.6709 7.11328C11.8111 7.2234 11.8235 7.4308 11.6973 7.55664L10.5664 8.68359C10.4618 8.78789 10.2963 8.80006 10.1777 8.71191L10.04 8.60938C9.19972 7.98493 8.18634 7.65041 7.13281 7.65039C6.07266 7.65039 5.05314 7.98935 4.20996 8.62109L4.07227 8.72461C3.95372 8.81343 3.78753 8.80172 3.68262 8.69727L2.55176 7.56934C2.4263 7.44372 2.43873 7.23715 2.57812 7.12695L2.75293 6.98828C4.0001 6.00246 5.53448 5.46973 7.13281 5.46973ZM7.13281 2C9.65727 2.00002 12.0715 2.89035 13.9824 4.52246L14.1455 4.66211C14.2772 4.77461 14.2855 4.97523 14.1631 5.09766L13.0352 6.22168C12.926 6.33047 12.7521 6.33817 12.6338 6.23926L12.4941 6.12305C10.9895 4.86495 9.1036 4.18069 7.13281 4.18066C5.1553 4.18066 3.26368 4.86981 1.75684 6.13574L1.61719 6.25293C1.49888 6.35232 1.32325 6.34443 1.21387 6.23535L0.0869141 5.11133C-0.0351778 4.98914 -0.0275429 4.78939 0.103516 4.67676L0.266602 4.53711C2.17995 2.89605 4.60076 2 7.13281 2Z" fill="white"/>
</svg>
