<svg width="23" height="24" viewBox="0 0 23 24" fill="none" xmlns="http://www.w3.org/2000/svg">
<path fill-rule="evenodd" clip-rule="evenodd" d="M10.3188 0H16.3642L18.6061 8.10829H12.7006L10.3188 0ZM20.0779 13.4314L23 24H10.3188C8.05106 24 5.94867 23.1372 4.24082 21.6809L10.3623 16.6149L16.4295 21.7813L15.3377 17.7182L10.4439 13.4315H20.078L20.0779 13.4314ZM4.2404 21.6805C1.67431 19.4921 0 15.9626 0 12C0 10.6848 0.184962 9.41749 0.525183 8.23076L6.53637 13.4314L4.2404 21.6805ZM0.525287 8.2304C1.8924 3.46235 5.77451 0 10.3188 0L7.94752 8.10829L0.525391 8.23028L0.525287 8.2304Z" fill="#FFD700"/>
</svg>
