<svg width="40" height="40" viewBox="0 0 40 40" fill="none" xmlns="http://www.w3.org/2000/svg">
<path fill-rule="evenodd" clip-rule="evenodd" d="M18.8188 8H24.8642L27.1061 16.1083H21.2006L18.8188 8ZM28.5779 21.4314L31.5 32H18.8188C16.5511 32 14.4487 31.1372 12.7408 29.6809L18.8623 24.6149L24.9295 29.7813L23.8377 25.7182L18.9439 21.4315H28.578L28.5779 21.4314ZM12.7404 29.6805C10.1743 27.4921 8.5 23.9626 8.5 20C8.5 18.6848 8.68496 17.4175 9.02518 16.2308L15.0364 21.4314L12.7404 29.6805ZM9.02529 16.2304C10.3924 11.4624 14.2745 8 18.8188 8L16.4475 16.1083L9.02539 16.2303L9.02529 16.2304Z" fill="#FFD700"/>
</svg>
