<svg width="40" height="40" viewBox="0 0 40 40" fill="none" xmlns="http://www.w3.org/2000/svg">
<g clip-path="url(#clip0_1_2074)">
<path d="M38.914 0.43731C39.7031 0.984185 40.1171 1.9295 39.9687 2.87481L34.9687 35.3748C34.8515 36.1326 34.3906 36.7967 33.7187 37.1717C33.0468 37.5467 32.2421 37.5936 31.5312 37.2967L22.1875 33.4139L16.8359 39.2029C16.1406 39.9607 15.0468 40.2107 14.0859 39.8357C13.125 39.4607 12.5 38.5311 12.5 37.4998V30.9686C12.5 30.6561 12.6171 30.3592 12.8281 30.1326L25.9218 15.8436C26.375 15.3514 26.3593 14.5936 25.8906 14.1248C25.4218 13.6561 24.664 13.6248 24.1718 14.0701L8.28121 28.1873L1.38277 24.7342C0.554647 24.3201 0.0233967 23.492 -4.07777e-05 22.5701C-0.0234783 21.6482 0.460897 20.7889 1.25777 20.3279L36.2578 0.327935C37.0937 -0.148627 38.125 -0.101752 38.914 0.43731Z" fill="#9D9D9D"/>
</g>
<defs>
<clipPath id="clip0_1_2074">
<rect width="40" height="40" fill="white"/>
</clipPath>
</defs>
</svg>
