<svg width="12" height="12" viewBox="0 0 12 12" fill="none" xmlns="http://www.w3.org/2000/svg">
<path d="M3.46875 10.2938L3.17344 10.9852C2.73516 10.7625 2.33203 10.4883 1.96641 10.1672L2.49844 9.63516C2.79141 9.89062 3.11719 10.1133 3.46875 10.2938ZM0.752344 6.17578H0C0.0328125 6.67266 0.126563 7.15313 0.274219 7.60781L0.972656 7.32891C0.857813 6.96094 0.780469 6.57422 0.752344 6.17578ZM0.752344 5.42578C0.785156 4.98516 0.874219 4.55859 1.0125 4.15781L0.321094 3.8625C0.145313 4.35469 0.0351562 4.87969 0 5.42578H0.752344ZM1.30781 3.46875C1.49063 3.11953 1.71094 2.79375 1.96641 2.49609L1.43437 1.96406C1.11328 2.32969 0.836719 2.73281 0.616406 3.17109L1.30781 3.46875ZM9.10547 9.63516C8.77969 9.91641 8.41641 10.1578 8.025 10.3477L8.30391 11.0461C8.78906 10.8141 9.23672 10.5164 9.6375 10.1648L9.10547 9.63516ZM2.49609 1.96641C2.82188 1.68516 3.18516 1.44375 3.57656 1.25391L3.29766 0.555469C2.8125 0.7875 2.36484 1.08516 1.96641 1.43672L2.49609 1.96641ZM10.2938 8.13281C10.1109 8.48203 9.89062 8.80781 9.63516 9.10547L10.1672 9.6375C10.4883 9.27188 10.7648 8.86641 10.9852 8.43047L10.2938 8.13281ZM10.8492 6.17578C10.8164 6.61641 10.7273 7.04297 10.5891 7.44375L11.2805 7.73906C11.4562 7.24453 11.5664 6.71953 11.5992 6.17344H10.8492V6.17578ZM7.32891 10.6289C6.96094 10.7461 6.57422 10.8211 6.17578 10.8492V11.6016C6.67266 11.5688 7.15313 11.475 7.60781 11.3273L7.32891 10.6289ZM5.42578 10.8492C4.98516 10.8164 4.55859 10.7273 4.15781 10.5891L3.8625 11.2805C4.35703 11.4562 4.88203 11.5664 5.42813 11.5992V10.8492H5.42578ZM10.6289 4.27266C10.7461 4.64062 10.8211 5.02734 10.8492 5.42578H11.6016C11.5688 4.92891 11.475 4.44844 11.3273 3.99375L10.6289 4.27266ZM1.96641 9.10547C1.68516 8.77969 1.44375 8.41641 1.25391 8.025L0.555469 8.30391C0.7875 8.78906 1.08516 9.23672 1.43672 9.6375L1.96641 9.10547ZM6.17578 0.752344C6.61641 0.785156 7.04063 0.874219 7.44375 1.0125L7.73906 0.321094C7.24688 0.145313 6.72188 0.0351562 6.17578 0V0.752344ZM4.27266 0.972656C4.64062 0.855469 5.02734 0.780469 5.42578 0.752344V0C4.92891 0.0328125 4.44844 0.126563 3.99375 0.274219L4.27266 0.972656ZM10.1672 1.96406L9.63516 2.49609C9.91641 2.82188 10.1578 3.18516 10.35 3.57656L11.0484 3.29766C10.8164 2.8125 10.5187 2.36484 10.1672 1.96406ZM9.10547 1.96641L9.6375 1.43437C9.27188 1.11328 8.86875 0.836719 8.43047 0.616406L8.13516 1.30781C8.48203 1.49063 8.81016 1.71094 9.10547 1.96641Z" fill="white"/>
<path d="M5.80078 8.98828C6.16322 8.98828 6.45703 8.69447 6.45703 8.33203C6.45703 7.96959 6.16322 7.67578 5.80078 7.67578C5.43834 7.67578 5.14453 7.96959 5.14453 8.33203C5.14453 8.69447 5.43834 8.98828 5.80078 8.98828Z" fill="white"/>
<path d="M5.9813 7.11328H5.6063C5.45161 7.11328 5.32505 6.98672 5.32505 6.83203C5.32505 5.16797 7.13911 5.33437 7.13911 4.30547C7.13911 3.83672 6.72193 3.36328 5.7938 3.36328C5.11177 3.36328 4.75552 3.58828 4.4063 4.03594C4.3149 4.15312 4.14615 4.17656 4.02661 4.09219L3.71958 3.87656C3.58833 3.78516 3.55786 3.6 3.65865 3.47344C4.15552 2.83594 4.74615 2.42578 5.79615 2.42578C7.02193 2.42578 8.07896 3.12422 8.07896 4.30547C8.07896 5.88984 6.26489 5.79375 6.26489 6.83203C6.26255 6.98672 6.13599 7.11328 5.9813 7.11328Z" fill="white"/>
</svg>
