<svg width="40" height="40" viewBox="0 0 40 40" fill="none" xmlns="http://www.w3.org/2000/svg">
<path d="M15.8463 22.2263L12.5638 14.4063L9.19625 22.2263H15.8463ZM24.25 30.365H15.4138V28.6588L15.9863 28.63C16.4065 28.6591 16.8266 28.5726 17.2013 28.38C17.2566 28.3448 17.3022 28.2962 17.3339 28.2388C17.3656 28.1814 17.3823 28.1169 17.3825 28.0513C17.3126 27.4416 17.1353 26.8491 16.8588 26.3013L15.8438 23.8875H9.1525L8 26.5738C7.7673 27.0251 7.61944 27.5153 7.56375 28.02C7.56375 28.065 7.56375 28.1688 7.75625 28.3213C8.21919 28.5461 8.73082 28.6522 9.245 28.63L9.805 28.6713V30.3638H2.5V28.7263L3 28.6388C3.44274 28.6096 3.87175 28.4732 4.25 28.2413C4.90078 27.4816 5.40132 26.6052 5.725 25.6588L12.6938 9.36377H14L20.89 25.8313C21.1672 26.6768 21.6133 27.4571 22.2013 28.125C22.6288 28.4504 23.1515 28.626 23.6888 28.625L24.2563 28.6588L24.25 30.365Z" fill="white"/>
<path d="M32.3012 26.9498V21.9685C31.3526 22.3224 30.4238 22.7272 29.5187 23.181C28.8919 23.4956 28.3415 23.9436 27.9062 24.4935C27.5894 24.9294 27.4196 25.4547 27.4212 25.9935C27.3999 26.6188 27.6196 27.2283 28.035 27.696C28.2069 27.9052 28.4223 28.0744 28.6662 28.1919C28.9102 28.3093 29.1768 28.3722 29.4475 28.376C30.5252 28.2129 31.5238 27.7137 32.3012 26.9498ZM28.135 30.636C27.6358 30.649 27.1395 30.5563 26.6787 30.3639C26.2179 30.1715 25.803 29.8838 25.4612 29.5198C24.7525 28.7414 24.3785 27.7154 24.42 26.6635C24.4049 25.9708 24.5846 25.2878 24.9387 24.6923C25.5075 23.8422 26.2763 23.1447 27.1775 22.661C28.6272 21.8756 30.1394 21.2117 31.6987 20.676V20.5835C31.7964 19.7879 31.6281 18.9823 31.22 18.2923C31.0492 18.1109 30.8396 17.9704 30.607 17.8812C30.3743 17.7921 30.1245 17.7565 29.8762 17.7773C29.5072 17.7509 29.142 17.8672 28.8562 18.1023C28.7513 18.1803 28.6656 18.2811 28.6056 18.3972C28.5456 18.5134 28.5129 18.6416 28.51 18.7723L28.5387 19.5798C28.568 20.1091 28.3885 20.6288 28.0387 21.0273C27.8652 21.1987 27.6594 21.3341 27.4333 21.4257C27.2072 21.5173 26.9652 21.5633 26.7213 21.5611C26.4774 21.5589 26.2363 21.5085 26.0119 21.4128C25.7875 21.3171 25.5842 21.178 25.4137 21.0035C25.077 20.6101 24.9023 20.1034 24.925 19.586C24.946 19.0495 25.0902 18.525 25.3464 18.0531C25.6026 17.5813 25.964 17.1747 26.4025 16.8648C27.5293 16.0337 28.9108 15.6217 30.3087 15.6998C31.3912 15.6625 32.4667 15.8872 33.4437 16.3548C34.1326 16.7181 34.67 17.3144 34.96 18.0373C35.2208 18.9292 35.3241 19.8599 35.265 20.7873V25.2248C35.2427 25.9542 35.264 26.6842 35.3287 27.411C35.338 27.4974 35.3607 27.5818 35.3962 27.661C35.5025 27.5635 35.7512 27.3798 36.4762 26.6535L37.5 25.6185V28.0773L37.375 28.2373C36.1775 29.841 35.0212 30.621 33.8375 30.621C33.5403 30.6291 33.2451 30.5707 32.9733 30.4503C32.7015 30.3298 32.4599 30.1503 32.2662 29.9248C32.0473 29.6554 31.894 29.3387 31.8187 28.9998C31.2594 29.4596 30.6599 29.8683 30.0275 30.221C29.4345 30.496 28.7886 30.6376 28.135 30.636Z" fill="white"/>
</svg>
