<svg width="15" height="16" viewBox="0 0 15 16" fill="none" xmlns="http://www.w3.org/2000/svg">
<path fill-rule="evenodd" clip-rule="evenodd" d="M6.72964 0H10.6723L12.1344 5.40553H8.28302L6.72964 0ZM13.0943 8.95428L15 16H6.72964C5.25069 16 3.87957 15.4248 2.76575 14.4539L6.75802 11.0766L10.7149 14.5208L10.0028 11.8121L6.81125 8.95436H13.0944L13.0943 8.95428ZM2.76548 14.4537C1.09194 12.9947 0 10.6417 0 8C0 7.12318 0.120627 6.27832 0.34251 5.48717L4.26285 8.95428L2.76548 14.4537ZM0.342578 5.48693C1.23417 2.30824 3.76598 0 6.72964 0L5.18316 5.40553L0.342646 5.48685L0.342578 5.48693Z" fill="#FFD700"/>
</svg>
